<mxfile host="app.diagrams.net" agent="Mozilla/5.0 (Windows NT 10.0; Win64; x64) AppleWebKit/537.36 (KHTML, like Gecko) Chrome/131.0.0.0 Safari/537.36" version="26.0.3">
  <diagram name="Página-1" id="Ye-eUpBjMJh4f7l9B1_7">
    <mxGraphModel dx="1434" dy="738" grid="1" gridSize="10" guides="1" tooltips="1" connect="1" arrows="1" fold="1" page="1" pageScale="1" pageWidth="827" pageHeight="1169" math="0" shadow="0">
      <root>
        <mxCell id="0" />
        <mxCell id="1" parent="0" />
        <mxCell id="asZfvic0-GqS4lvXExiz-3" value="" style="edgeStyle=orthogonalEdgeStyle;rounded=0;orthogonalLoop=1;jettySize=auto;html=1;" edge="1" parent="1" source="asZfvic0-GqS4lvXExiz-1" target="asZfvic0-GqS4lvXExiz-2">
          <mxGeometry relative="1" as="geometry" />
        </mxCell>
        <mxCell id="asZfvic0-GqS4lvXExiz-5" value="" style="edgeStyle=orthogonalEdgeStyle;rounded=0;orthogonalLoop=1;jettySize=auto;html=1;" edge="1" parent="1" source="asZfvic0-GqS4lvXExiz-1" target="asZfvic0-GqS4lvXExiz-4">
          <mxGeometry relative="1" as="geometry" />
        </mxCell>
        <mxCell id="asZfvic0-GqS4lvXExiz-7" value="" style="edgeStyle=orthogonalEdgeStyle;rounded=0;orthogonalLoop=1;jettySize=auto;html=1;" edge="1" parent="1" source="asZfvic0-GqS4lvXExiz-1" target="asZfvic0-GqS4lvXExiz-6">
          <mxGeometry relative="1" as="geometry" />
        </mxCell>
        <mxCell id="asZfvic0-GqS4lvXExiz-9" value="" style="edgeStyle=orthogonalEdgeStyle;rounded=0;orthogonalLoop=1;jettySize=auto;html=1;" edge="1" parent="1" source="asZfvic0-GqS4lvXExiz-1" target="asZfvic0-GqS4lvXExiz-8">
          <mxGeometry relative="1" as="geometry" />
        </mxCell>
        <mxCell id="asZfvic0-GqS4lvXExiz-16" value="" style="edgeStyle=orthogonalEdgeStyle;rounded=0;orthogonalLoop=1;jettySize=auto;html=1;" edge="1" parent="1" source="asZfvic0-GqS4lvXExiz-1" target="asZfvic0-GqS4lvXExiz-6">
          <mxGeometry relative="1" as="geometry" />
        </mxCell>
        <mxCell id="asZfvic0-GqS4lvXExiz-17" style="edgeStyle=orthogonalEdgeStyle;rounded=0;orthogonalLoop=1;jettySize=auto;html=1;" edge="1" parent="1" source="asZfvic0-GqS4lvXExiz-1">
          <mxGeometry relative="1" as="geometry">
            <mxPoint x="520" y="410" as="targetPoint" />
          </mxGeometry>
        </mxCell>
        <mxCell id="asZfvic0-GqS4lvXExiz-1" value="&lt;font style=&quot;font-size: 15px;&quot;&gt;Fazer um rpg por texto&lt;/font&gt;" style="rounded=0;whiteSpace=wrap;html=1;" vertex="1" parent="1">
          <mxGeometry x="324" y="250" width="166" height="90" as="geometry" />
        </mxCell>
        <mxCell id="asZfvic0-GqS4lvXExiz-11" value="" style="edgeStyle=orthogonalEdgeStyle;rounded=0;orthogonalLoop=1;jettySize=auto;html=1;" edge="1" parent="1" source="asZfvic0-GqS4lvXExiz-2" target="asZfvic0-GqS4lvXExiz-10">
          <mxGeometry relative="1" as="geometry" />
        </mxCell>
        <mxCell id="asZfvic0-GqS4lvXExiz-13" value="" style="edgeStyle=orthogonalEdgeStyle;rounded=0;orthogonalLoop=1;jettySize=auto;html=1;" edge="1" parent="1" source="asZfvic0-GqS4lvXExiz-2" target="asZfvic0-GqS4lvXExiz-12">
          <mxGeometry relative="1" as="geometry" />
        </mxCell>
        <mxCell id="asZfvic0-GqS4lvXExiz-2" value="herói" style="whiteSpace=wrap;html=1;rounded=0;" vertex="1" parent="1">
          <mxGeometry x="550" y="220" width="120" height="60" as="geometry" />
        </mxCell>
        <mxCell id="asZfvic0-GqS4lvXExiz-15" value="" style="edgeStyle=orthogonalEdgeStyle;rounded=0;orthogonalLoop=1;jettySize=auto;html=1;" edge="1" parent="1" source="asZfvic0-GqS4lvXExiz-4" target="asZfvic0-GqS4lvXExiz-14">
          <mxGeometry relative="1" as="geometry" />
        </mxCell>
        <mxCell id="asZfvic0-GqS4lvXExiz-4" value="vilão/inimigos" style="whiteSpace=wrap;html=1;rounded=0;" vertex="1" parent="1">
          <mxGeometry x="106" y="265" width="120" height="60" as="geometry" />
        </mxCell>
        <mxCell id="asZfvic0-GqS4lvXExiz-26" value="" style="edgeStyle=orthogonalEdgeStyle;rounded=0;orthogonalLoop=1;jettySize=auto;html=1;" edge="1" parent="1" source="asZfvic0-GqS4lvXExiz-6" target="asZfvic0-GqS4lvXExiz-25">
          <mxGeometry relative="1" as="geometry" />
        </mxCell>
        <mxCell id="asZfvic0-GqS4lvXExiz-6" value="itens" style="whiteSpace=wrap;html=1;rounded=0;" vertex="1" parent="1">
          <mxGeometry x="230" y="420" width="120" height="60" as="geometry" />
        </mxCell>
        <mxCell id="asZfvic0-GqS4lvXExiz-8" value="loop da história" style="whiteSpace=wrap;html=1;rounded=0;" vertex="1" parent="1">
          <mxGeometry x="342" y="95" width="120" height="60" as="geometry" />
        </mxCell>
        <mxCell id="asZfvic0-GqS4lvXExiz-10" value="Classes diferentes para escolha com atributos distintos" style="whiteSpace=wrap;html=1;rounded=0;" vertex="1" parent="1">
          <mxGeometry x="590" y="110" width="120" height="60" as="geometry" />
        </mxCell>
        <mxCell id="asZfvic0-GqS4lvXExiz-12" value="input:&lt;div&gt;nome e classe&lt;/div&gt;" style="whiteSpace=wrap;html=1;rounded=0;" vertex="1" parent="1">
          <mxGeometry x="750" y="220" width="120" height="60" as="geometry" />
        </mxCell>
        <mxCell id="asZfvic0-GqS4lvXExiz-14" value="um vilão até que simples como um goblin com uma vida balanceada" style="whiteSpace=wrap;html=1;rounded=0;" vertex="1" parent="1">
          <mxGeometry x="106" y="110" width="120" height="75" as="geometry" />
        </mxCell>
        <mxCell id="asZfvic0-GqS4lvXExiz-24" value="" style="edgeStyle=orthogonalEdgeStyle;rounded=0;orthogonalLoop=1;jettySize=auto;html=1;" edge="1" parent="1" source="asZfvic0-GqS4lvXExiz-22" target="asZfvic0-GqS4lvXExiz-23">
          <mxGeometry relative="1" as="geometry" />
        </mxCell>
        <mxCell id="asZfvic0-GqS4lvXExiz-22" value="Batalha" style="whiteSpace=wrap;html=1;rounded=0;" vertex="1" parent="1">
          <mxGeometry x="470" y="410" width="120" height="60" as="geometry" />
        </mxCell>
        <mxCell id="asZfvic0-GqS4lvXExiz-23" value="&lt;font style=&quot;font-size: 11px;&quot;&gt;Escolhas:&lt;/font&gt;&lt;div&gt;&lt;font style=&quot;font-size: 11px;&quot;&gt;fugir&lt;/font&gt;&lt;/div&gt;&lt;div&gt;&lt;font style=&quot;font-size: 11px;&quot;&gt;batalhar&lt;/font&gt;&lt;/div&gt;&lt;div&gt;&lt;font style=&quot;font-size: 11px;&quot;&gt;ou defender&lt;/font&gt;&lt;/div&gt;" style="whiteSpace=wrap;html=1;rounded=0;" vertex="1" parent="1">
          <mxGeometry x="670" y="410" width="120" height="60" as="geometry" />
        </mxCell>
        <mxCell id="asZfvic0-GqS4lvXExiz-25" value="uma uva que recupera/aumenta sua vida" style="whiteSpace=wrap;html=1;rounded=0;" vertex="1" parent="1">
          <mxGeometry x="120" y="520" width="120" height="60" as="geometry" />
        </mxCell>
      </root>
    </mxGraphModel>
  </diagram>
</mxfile>
